<svg width="90" height="90" viewBox="0 0 90 90" fill="none" xmlns="http://www.w3.org/2000/svg"><path d="M0 71.43v4.266c0 .023.006.046.007.069.003.073.011.144.022.216.009.062.017.124.031.184.015.063.037.124.058.186.021.063.042.124.069.184.027.06.06.115.092.17.032.056.064.112.101.165.038.053.082.102.126.152.043.05.085.099.132.142.045.043.095.082.145.12.057.044.114.087.175.126.02.013.036.03.056.04l21.374 12.276c.033.02.068.034.101.05a2.16 2.16 0 0 0 .42.158 1.959 1.959 0 0 0 .364.053c.041.003.081.013.122.013.042 0 .081-.01.122-.013a2.024 2.024 0 0 0 .364-.052c.058-.014.116-.035.173-.055.085-.03.168-.063.247-.103.034-.017.068-.031.101-.05L44.768 78.03l20.365 11.698c.033.019.068.032.101.05a2.061 2.061 0 0 0 .592.192c.064.01.127.015.192.019.042.002.081.011.123.011.042 0 .081-.01.122-.011a2.024 2.024 0 0 0 .364-.053c.058-.014.116-.035.173-.055.085-.03.168-.063.247-.103.034-.017.068-.031.101-.05l21.373-12.276c.02-.011.036-.027.056-.04a1.61 1.61 0 0 0 .175-.126c.05-.038.1-.076.145-.12.047-.044.089-.093.132-.142.044-.05.088-.099.126-.152.037-.052.069-.108.101-.164.032-.056.066-.111.092-.17.027-.06.048-.123.069-.184.021-.063.043-.123.058-.188.014-.06.022-.122.031-.184.01-.072.019-.142.022-.215.001-.023.007-.046.007-.069V51.139c0-.122-.015-.242-.036-.36l-.018-.092a2.045 2.045 0 0 0-.102-.328l-.017-.035a1.997 1.997 0 0 0-.148-.273l-.052-.077a2.038 2.038 0 0 0-.218-.263l-.003-.003a2.076 2.076 0 0 0-.343-.27c-.026-.017-.05-.037-.076-.052L68.163 37.688V14.303c0-.123-.015-.243-.036-.36l-.018-.092a2.045 2.045 0 0 0-.102-.329l-.017-.034a1.997 1.997 0 0 0-.148-.274l-.052-.077a2.038 2.038 0 0 0-.221-.267 2.076 2.076 0 0 0-.343-.27c-.026-.015-.05-.035-.076-.05L45.775.268a2.024 2.024 0 0 0-2.015 0L22.388 12.55c-.027.014-.05.034-.076.05a2.007 2.007 0 0 0-.346.273 2.038 2.038 0 0 0-.27.341 2.014 2.014 0 0 0-.149.274c-.005.013-.012.023-.017.035a2.056 2.056 0 0 0-.12.42 2.053 2.053 0 0 0-.036.36V37.69L1.015 49.386c-.027.014-.05.033-.076.05l-.083.056a2.007 2.007 0 0 0-.263.218 2.038 2.038 0 0 0-.218.264c-.019.024-.036.05-.053.076a2.014 2.014 0 0 0-.149.274l-.016.034a2.056 2.056 0 0 0-.12.422 2.053 2.053 0 0 0-.036.36v20.29H0zm4.045-16.797l1.889 1.085-1.889 1.89v-2.974zm0 8.694l5.522-5.521 2.046 1.175-7.568 7.568v-3.222zm21.373-45.53l1.888 1.084-1.888 1.889v-2.973zm0 8.692l5.522-5.52 2.046 1.174-7.567 7.569v-3.223h-.001zm60.073 28.144v2.973l-1.889-1.889 1.889-1.084zm-5.521 3.172l5.522 5.523v3.22l-7.568-7.568 2.046-1.174zm-5.68 3.263l11.201 11.2v2.258l-.612.352-12.634-12.636 2.045-1.174zm4.911 17.072L68.163 67.102v-2.516l.448-.257 12.635 12.635-2.045 1.175zm-5.68 3.261l-5.358-5.358v-3.22l7.404 7.404-2.046 1.174zm-16.807-1.175l7.404-7.404v3.22L58.76 81.4l-2.046-1.175zm-5.679-3.261L63.67 64.329l.448.258V67.1L53.081 78.14l-2.046-1.174zm13.083 4.797v2.716l-1.725-.99 1.725-1.725zm4.045 2.716v-2.715l1.725 1.724-1.725.992zm-20.761-9.6l-.612-.352V72.27l11.201-11.202 2.046 1.175-12.635 12.636zm-4.656-47.129v2.516L31.708 41.3l-2.046-1.175 12.635-12.634.449.258zm0 8.235v3.221l-5.358 5.358-2.046-1.175 7.404-7.404zm0 8.941v2.717l-1.725-.992 1.725-1.724zm4.044 21.623v-3.221l5.522-5.523 2.046 1.175-7.568 7.569zm0-8.94v-2.973l1.889 1.084-1.889 1.889zm0-9.966v-2.717l1.725 1.726-1.725.99zm5.358-3.079l-5.358-5.358v-3.22l7.404 7.404-2.046 1.174zm5.68-3.262L46.79 30.264V27.75l.448-.258 12.635 12.635-2.045 1.174zm6.29-23.505v2.974l-1.888-1.89 1.888-1.084zm-5.521 3.172l5.522 5.52v3.221l-7.567-7.567 2.045-1.174zm-5.679 3.262l11.2 11.2v2.258l-.612.351-12.634-12.635 2.046-1.174zM26.03 38.04l-.612-.352V35.43l11.2-11.2 2.046 1.174L26.03 38.04zm16.716 16.593v2.973l-1.889-1.889 1.889-1.084zm-5.522 3.172l5.522 5.523v3.22l-7.568-7.568 2.046-1.174zm-5.679 3.263l11.201 11.2v2.258l-.612.352-12.635-12.636 2.046-1.174zm4.91 17.072L25.418 67.102v-2.516l.448-.257 12.635 12.636-2.046 1.174zm-5.679 3.26l-5.358-5.358v-3.22l7.404 7.404-2.046 1.174zm-16.807-1.175l7.404-7.404v3.22L16.015 81.4l-2.046-1.175zm-5.679-3.26l12.635-12.636.448.259v2.515L10.335 78.14 8.29 76.965zm13.083 4.797v2.716l-1.725-.99 1.725-1.725zm4.045 2.716v-2.715l1.725 1.724-1.725.992zm-20.762-9.6l-.612-.352V72.27l11.201-11.202 2.046 1.175L4.656 74.879zm61.485-13.794l-17.316-9.947 17.316-9.946 17.313 9.948-17.313 9.944zM44.768 4.354l17.313 9.948-17.313 9.945-17.313-9.944 17.313-9.949zM23.395 41.192l17.316 9.947-17.316 9.946L6.082 51.14l17.313-9.948z" fill="#000"/></svg>